<svg width="17" height="17" viewBox="0 0 17 17" fill="none" xmlns="http://www.w3.org/2000/svg">
<path fill-rule="evenodd" clip-rule="evenodd" d="M0.35522 0.370707C0.582736 0.143064 0.891273 0.0151808 1.21298 0.0151808C1.53469 0.0151808 1.84322 0.143064 2.07074 0.370707L8.49242 6.79792L14.9141 0.370707C15.026 0.254731 15.1599 0.162224 15.3079 0.098584C15.4559 0.0349445 15.6151 0.00144691 15.7762 4.58478e-05C15.9373 -0.00135521 16.0971 0.029368 16.2462 0.0904234C16.3953 0.151479 16.5307 0.241643 16.6446 0.355656C16.7586 0.469668 16.8487 0.605246 16.9097 0.754477C16.9707 0.903708 17.0014 1.06361 17 1.22484C16.9986 1.38607 16.9651 1.54541 16.9015 1.69356C16.8379 1.8417 16.7455 1.97569 16.6296 2.08771L10.2079 8.51492L16.6296 14.9421C16.8506 15.1712 16.9729 15.4779 16.9701 15.7963C16.9674 16.1146 16.8398 16.4192 16.6148 16.6443C16.3899 16.8695 16.0856 16.9972 15.7675 17C15.4494 17.0027 15.1429 16.8803 14.9141 16.6591L8.49242 10.2319L2.07074 16.6591C1.84192 16.8803 1.53545 17.0027 1.21735 17C0.899239 16.9972 0.594943 16.8695 0.369999 16.6443C0.145055 16.4192 0.0174592 16.1146 0.0146949 15.7963C0.0119307 15.4779 0.134219 15.1712 0.35522 14.9421L6.7769 8.51492L0.35522 2.08771C0.127773 1.85999 0 1.55119 0 1.22921C0 0.907222 0.127773 0.598419 0.35522 0.370707Z" fill="#C02822"/>
</svg>
