<svg width="5" height="8" viewBox="0 0 5 8" fill="none" xmlns="http://www.w3.org/2000/svg">
<path d="M1.69505 5.67828H2.85483V5.60573C2.87105 4.72745 3.13869 4.33413 3.82806 3.93317C4.55393 3.52076 5 2.94033 5 2.08115C5 0.840095 4.00243 0 2.51419 0C1.14761 0 0.052717 0.752267 0 2.12697H1.23277C1.28143 1.31742 1.89376 0.962291 2.51419 0.962291C3.20357 0.962291 3.76318 1.39379 3.76318 2.06969C3.76318 2.63866 3.38605 3.03962 2.90349 3.3222C2.14923 3.75752 1.70316 4.18902 1.69505 5.60573V5.67828ZM2.30738 8C2.74939 8 3.11841 7.66014 3.11841 7.23628C3.11841 6.82005 2.74939 6.47637 2.30738 6.47637C1.86131 6.47637 1.49635 6.82005 1.49635 7.23628C1.49635 7.66014 1.86131 8 2.30738 8Z" fill="black"/>
</svg>
