<svg width="15" height="15" viewBox="0 0 15 15" fill="none" xmlns="http://www.w3.org/2000/svg">
<path fill-rule="evenodd" clip-rule="evenodd" d="M7.5 14.3594C11.2883 14.3594 14.3594 11.2883 14.3594 7.5C14.3594 3.71168 11.2883 0.640634 7.5 0.640634C3.71168 0.640634 0.640634 3.71168 0.640634 7.5C0.640634 11.2883 3.71168 14.3594 7.5 14.3594ZM7.5 15C11.6421 15 15 11.6421 15 7.5C15 3.35786 11.6421 0 7.5 0C3.35786 0 0 3.35786 0 7.5C0 11.6421 3.35786 15 7.5 15Z" fill="black"/>
<path d="M6.69505 8.67828H7.85483V8.60573C7.87105 7.72745 8.13869 7.33413 8.82806 6.93317C9.55393 6.52076 10 5.94033 10 5.08115C10 3.8401 9.00243 3 7.51419 3C6.14761 3 5.05272 3.75227 5 5.12697H6.23277C6.28143 4.31742 6.89376 3.96229 7.51419 3.96229C8.20357 3.96229 8.76318 4.39379 8.76318 5.06969C8.76318 5.63866 8.38605 6.03962 7.90349 6.3222C7.14923 6.75752 6.70316 7.18902 6.69505 8.60573V8.67828ZM7.30738 11C7.74939 11 8.11841 10.6601 8.11841 10.2363C8.11841 9.82005 7.74939 9.47637 7.30738 9.47637C6.86131 9.47637 6.49635 9.82005 6.49635 10.2363C6.49635 10.6601 6.86131 11 7.30738 11Z" fill="black"/>
</svg>
